<?xml version="1.0" encoding="utf-8"?>
<!-- Generator: Adobe Illustrator 19.0.0, SVG Export Plug-In . SVG Version: 6.00 Build 0)  -->
<svg version="1.1" id="Layer_1" xmlns="http://www.w3.org/2000/svg" xmlns:xlink="http://www.w3.org/1999/xlink" x="0px" y="0px"
	 viewBox="0 0 321.6 99.8" style="enable-background:new 0 0 321.6 99.8;" xml:space="preserve">
<style type="text/css">
	.st0{clip-path:url(#XMLID_162_);fill:#EE2E2D;}
</style>
<g id="XMLID_5_">
	<g>
		<defs>
			<rect id="XMLID_163_" width="321.6" height="99.8"/>
		</defs>
		<clipPath id="XMLID_162_">
			<use xlink:href="#XMLID_163_"  style="overflow:visible;"/>
		</clipPath>
		<path class="st0" d="M133.1,22.2h55.4v11.1h-44.4v11.1h44.4v33.3h-55.4V66.5h44.4V55.4h-44.4V22.2z M110.9,99.8h99.8V0h-99.8V99.8
			z"/>
		<path class="st0" d="M283.3,22.2h16.1l-33.3,28.4l33.3,27h-16.3L255,55.4v22.2H244V22.2H255v22.2L283.3,22.2z M221.8,99.8h99.8V0
			h-99.8V99.8z"/>
		<path class="st0" d="M22.2,22.2h55.4v55.4H66.5V33.3H55.4v44.4H44.4V33.3H33.3v44.4H22.2V22.2z M0,99.8h99.8V0H0V99.8z"/>
	</g>
</g>
</svg>
